<svg id="Capa_1" enable-background="new 0 0 512 512" height="512" viewBox="0 0 512 512" width="512" xmlns="http://www.w3.org/2000/svg"><path d="m447.72 192.88v64.24c-15.73 109.99-110.35 192.88-222.72 192.88-124.37 0-225-100.65-225-225 0-124.37 100.65-225 225-225 112.44 0 207 82.95 222.72 192.88z" fill="#dfe9ee"/><path d="m447.72 192.88v64.24c-15.73 109.99-110.35 192.88-222.72 192.88v-450c112.44 0 207 82.95 222.72 192.88z" fill="#c6d0da"/><path d="m432.902 512h-162.902v-30h107.098l-147.967-223.762 25.023-16.548z" fill="#32393f"/><path d="m180 512h-162.902l178.748-270.31 25.023 16.548-147.967 223.762h107.098z" fill="#474f54"/><path d="m225 360c-24.81 0-45 20.19-45 45s20.19 45 45 45 45-20.19 45-45-20.19-45-45-45z" fill="#76e2f8"/><path d="m270 405c0 24.81-20.19 45-45 45v-90c24.81 0 45 20.19 45 45z" fill="#4bb9ec"/><path d="m105 180c-24.81 0-45 20.19-45 45s20.19 45 45 45 45-20.19 45-45-20.19-45-45-45z" fill="#57d9ad"/><path d="m225 0c-24.81 0-45 20.19-45 45s20.19 45 45 45 45-20.19 45-45-20.19-45-45-45z" fill="#ff4949"/><path d="m270 45c0 24.81-20.19 45-45 45v-90c24.81 0 45 20.19 45 45z" fill="#f30051"/><path d="m98 52.72c-24.87 0-45 20.13-45 45s20.13 45 45 45 45-20.13 45-45-20.13-45-45-45z" fill="#575f64"/><path d="m315 90c-24.81 0-45 20.19-45 45s20.19 45 45 45 45-20.19 45-45-20.19-45-45-45z" fill="#ffe375"/><path d="m255 210h120v30h-120z" fill="#32393f"/><path d="m512 270h-152v-90h152z" fill="#474f54"/><path d="m225 180c-24.81 0-45 20.19-45 45s20.19 45 45 45 45-20.19 45-45-20.19-45-45-45z" fill="#575f64"/><path d="m270 225c0 24.81-20.19 45-45 45v-90c24.81 0 45 20.19 45 45z" fill="#474f54"/><path d="m143 97.72c0 24.87-20.13 45-45 45v-90c24.87 0 45 20.13 45 45z" fill="#474f54"/><path d="m150 225c0 24.81-20.19 45-45 45v-90c24.81 0 45 20.19 45 45z" fill="#26bfa6"/><path d="m360 135c0 24.81-20.19 45-45 45v-90c24.81 0 45 20.19 45 45z" fill="#ffb725"/></svg>